<svg xmlns="http://www.w3.org/2000/svg" width="8" height="8" viewBox="0 0 8 8" fill='gray'>
   <style>
      path {
         mix-blend-mode: difference;
      }
   </style>
   <path d="M.05.092v.928h2.448c-.14.108-.2.161-.316.248l.006-.002c-.468.34-.892.735-1.262 1.18l-.002.001c-.267.313-.436.717-.535 1.149-.1.434-.136.894.058 1.328.212.474.375 1.294.342 1.472v.002c-.017.094-.117.297-.242.547-.126.25-.28.567-.272.965l.985-.02c-.002-.113.058-.286.168-.505.11-.22.268-.466.33-.81.064-.352.025-.72-.063-1.075.568-.255 1.054-.431 1.426-.617V4.88h.002c.07-.035.408-.151.723-.258v3.252h.691c.39.024.786.02 1.178.016.435-.003 1.041.043 1.547-.397v-.002h.002c.276-.242.44-.569.558-.918.119-.349.182-.722.174-1.074v-.002c-.008-.295-.02-.58-.119-.875a1.848 1.848 0 00-.584-.822c-.36-.302-.804-.393-1.213-.432a6.015 6.015 0 00-1.055.008c-.08.006-.177.032-.265.047V1.02h3.178V.092H.05zm3.796 1.12v2.44c-.46.15-.89.323-1.121.44-.27.135-.768.327-1.32.572-.02-.047-.04-.098-.06-.143-.045-.102-.067-.404.003-.707.069-.302.22-.607.326-.73l.002-.004.004-.002a6.029 6.029 0 011.086-1.017l.002-.002h.002c.416-.31.828-.646 1.076-.846zm1.672 3.022a4.31 4.31 0 01.48.014c.32.03.602.123.729.229.194.163.265.28.314.425.049.146.065.342.072.62a2.41 2.41 0 01-.129.767c-.086.253-.22.464-.302.537-.214.186-.502.179-.975.182h-.002c-.342.004-.645-.003-.945-.014V4.352c.102-.026.288-.09.338-.094a7.2 7.2 0 01.42-.024z" />
</svg>