<?xml version="1.0" standalone="no"?>
<!DOCTYPE svg PUBLIC "-//W3C//DTD SVG 20010904//EN"
 "http://www.w3.org/TR/2001/REC-SVG-20010904/DTD/svg10.dtd">
<svg version="1.0" xmlns="http://www.w3.org/2000/svg"
 width="700.000000pt" height="700.000000pt" viewBox="0 0 700.000000 700.000000"
 preserveAspectRatio="xMidYMid meet">
<metadata>
Created by potrace 1.14, written by Peter Selinger 2001-2017
</metadata>
<g transform="translate(0.000000,700.000000) scale(0.100000,-0.100000)"
fill="#000000" stroke="none">
<path d="M49 6918 c-1 -2 -3 -184 -3 -405 l-2 -403 36 -1 c19 0 500 0 1069 0
l1033 -1 -33 -28 c-29 -25 -128 -104 -234 -185 -221 -172 -274 -213 -295 -231
-295 -252 -551 -501 -730 -710 -135 -158 -182 -220 -254 -336 -52 -85 -156
-298 -156 -320 0 -8 -4 -18 -9 -24 -22 -23 -125 -371 -146 -494 -3 -19 -10
-53 -15 -75 -5 -22 -12 -62 -15 -90 -4 -27 -9 -61 -12 -75 -10 -48 -12 -385
-2 -440 5 -30 12 -75 15 -100 12 -87 60 -234 120 -365 37 -84 150 -439 169
-534 2 -9 10 -43 18 -76 46 -180 89 -447 89 -551 0 -108 -13 -142 -206 -536
-133 -273 -201 -450 -220 -578 -3 -19 -8 -46 -11 -60 -3 -14 -8 -69 -11 -123
l-5 -98 353 7 c194 4 388 7 430 8 62 1 78 4 79 16 0 8 2 23 4 32 28 146 65
240 205 513 125 246 170 353 204 490 24 98 28 119 42 220 9 70 11 298 3 370
-4 33 -10 89 -13 124 -4 36 -8 67 -10 70 -2 3 -7 26 -10 51 -4 25 -15 82 -25
127 l-18 82 281 120 c155 66 331 140 391 164 183 75 404 172 515 225 58 28
155 68 215 90 179 65 461 162 471 162 6 0 9 -538 9 -1411 0 -776 2 -1414 5
-1419 10 -16 1814 -30 2065 -16 71 4 132 9 135 11 3 2 31 6 62 9 77 8 267 58
348 92 329 135 577 380 744 735 96 206 194 504 222 678 3 18 7 42 9 51 2 10 7
40 11 67 3 26 8 57 10 68 23 125 22 559 -1 750 -36 300 -111 515 -253 732 -59
89 -151 204 -203 253 -178 168 -307 259 -476 333 -74 33 -242 90 -294 101 -13
3 -35 8 -49 11 -43 11 -253 45 -305 50 -169 17 -248 20 -495 20 -343 0 -498
-11 -655 -44 l-80 -17 0 1051 0 1050 1380 2 c759 1 1385 2 1390 3 7 0 10 138
10 405 l0 405 -3447 0 c-1897 0 -3449 -1 -3449 -2z m3316 -2050 l0 -1062 -195
-68 c-107 -37 -204 -72 -215 -77 -11 -5 -69 -28 -130 -52 -161 -62 -292 -119
-450 -194 -77 -37 -241 -110 -365 -162 -124 -53 -243 -103 -265 -113 -22 -10
-80 -34 -130 -55 -49 -20 -103 -43 -120 -50 -140 -64 -261 -112 -267 -107 -16
17 -61 143 -73 207 -13 67 -14 337 -1 392 2 11 8 43 12 70 32 219 194 588 319
728 14 17 48 55 73 85 200 233 504 515 782 725 36 27 67 52 70 55 3 3 30 23
60 44 82 58 405 311 660 515 124 100 227 181 230 181 3 0 5 -478 5 -1062z
m1849 -1582 c22 -3 68 -8 101 -11 159 -17 383 -81 492 -141 75 -42 211 -168
263 -244 68 -100 109 -211 126 -335 3 -27 8 -52 9 -55 5 -8 18 -271 18 -345 0
-62 -9 -196 -18 -253 -17 -124 -19 -133 -49 -251 -46 -176 -99 -309 -175 -440
-105 -180 -196 -256 -356 -297 -153 -40 -194 -43 -755 -43 -450 -1 -689 4
-699 15 -3 3 -6 523 -6 1155 l0 1149 100 30 c55 16 114 35 131 40 40 13 86 18
249 26 72 4 131 7 133 9 5 4 396 -4 436 -9z"/>
</g>
</svg>
