<svg xmlns="http://www.w3.org/2000/svg" width="512" height="512" viewBox="0 0 512 512">
    <path d="M189.3 148.4L89 253.4c-6 5.8-9 13.7-9 22.4s3 16.5 9 22.4l100.3 105.4c11.9 12.5 31.3 12.5 43.2 0 11.9-12.5 11.9-32.7 0-45.2L184.4 308h217c16.9 0 30.6-14.3 30.6-32s-13.7-32-30.6-32h-217l48.2-50.4c11.9-12.5 11.9-32.7 0-45.2-12-12.5-31.3-12.5-43.3 0z" />
    <path d="M446.95 33.696c-8.65-6.7-29.429-6.277-35.729 2.923L332.12 149.236l-36.533-39.549c-7.3-8.3-25.517-4.903-33.317 2.897-7.8 7.75-10.369 26.766-3.019 35.016 0 0 60.2 66.8 68.85 73.5 8.65 6.7 20.75 4.65 27.05-4.55L458.3 65.7c6.3-9.25-2.7-25.354-11.35-32.004z" />
</svg>